<?xml version="1.0" standalone="no"?>
<!DOCTYPE svg PUBLIC "-//W3C//DTD SVG 20010904//EN"
 "http://www.w3.org/TR/2001/REC-SVG-20010904/DTD/svg10.dtd">
<svg version="1.0" xmlns="http://www.w3.org/2000/svg"
 width="310.000000pt" height="310.000000pt" viewBox="0 0 310.000000 310.000000"
 preserveAspectRatio="xMidYMid meet">
<metadata>
Created by potrace 1.11, written by Peter Selinger 2001-2013
</metadata>
<g transform="translate(0.000000,310.000000) scale(0.100000,-0.100000)"
fill="#000000" stroke="none">
<path d="M20 2610 c0 -6 4 -18 10 -28 5 -9 16 -33 24 -52 19 -47 52 -117 75
-160 26 -48 113 -138 184 -190 32 -23 56 -44 54 -47 -8 -7 -146 25 -242 57
-110 36 -115 36 -115 5 0 -18 15 -35 58 -67 31 -24 60 -46 63 -51 3 -4 40 -25
83 -46 42 -22 73 -41 69 -44 -4 -2 -24 -7 -43 -11 -35 -7 -141 -72 -147 -91
-1 -5 1 -16 5 -22 11 -17 152 -52 240 -60 39 -3 72 -7 72 -9 0 -2 -18 -31 -40
-66 -53 -81 -51 -102 12 -106 26 -2 71 1 100 7 29 5 55 7 57 5 2 -2 -12 -21
-32 -43 -49 -54 -70 -88 -62 -101 11 -19 146 -5 253 26 l23 7 -28 -57 c-45
-91 -24 -102 154 -83 l72 8 -29 -53 c-15 -29 -30 -64 -32 -78 -3 -22 1 -25 30
-28 34 -3 167 39 212 67 22 15 24 15 18 -1 -17 -42 -29 -101 -24 -114 3 -8 18
-14 34 -14 31 0 136 31 173 50 11 7 22 10 24 8 2 -2 -3 -27 -10 -56 -14 -51
-12 -82 5 -82 26 0 177 82 192 104 14 20 -12 86 -33 86 -5 0 -15 -16 -23 -35
-14 -33 -78 -84 -84 -67 -1 4 6 33 17 64 27 78 13 86 -74 43 -27 -13 -57 -25
-65 -25 -9 0 -20 -4 -25 -9 -6 -5 -25 -12 -42 -16 -40 -8 -42 2 -13 75 32 82
22 86 -100 34 -47 -20 -100 -40 -117 -44 -31 -7 -32 -7 -22 14 6 11 27 44 46
73 51 75 43 85 -53 62 -103 -24 -194 -32 -194 -15 0 7 20 42 45 79 41 62 53
87 40 87 -3 0 -48 -11 -101 -25 -94 -24 -174 -32 -174 -17 0 4 27 36 61 71 50
54 58 66 47 78 -12 11 -26 10 -88 -6 -84 -21 -160 -34 -160 -27 0 10 45 82 73
118 48 62 39 68 -98 72 -76 3 -133 9 -155 19 l-35 15 30 12 c17 7 35 14 40 16
70 17 175 61 175 74 0 5 -19 14 -42 20 -109 28 -146 41 -180 65 -20 14 -42 25
-49 25 -7 0 -10 3 -7 6 4 3 23 0 45 -6 52 -15 151 -31 193 -32 39 0 90 17 90
30 0 5 -26 29 -57 53 -97 75 -164 142 -206 204 -22 33 -49 71 -61 84 l-21 24
22 -12 c12 -6 27 -17 35 -24 32 -32 198 -132 335 -203 61 -31 90 -41 98 -34 8
7 21 7 38 1 45 -17 39 5 -16 60 -51 51 -114 127 -132 158 -10 18 6 9 60 -34
122 -96 355 -232 376 -219 5 3 27 -9 48 -27 26 -20 46 -29 57 -25 16 6 15 8
-1 26 -28 31 -13 32 20 2 17 -15 59 -47 95 -71 36 -25 76 -52 90 -61 14 -9 40
-25 59 -34 40 -21 165 -113 212 -155 33 -30 49 -32 49 -5 0 8 5 14 10 14 6 0
10 -7 10 -15 0 -27 17 -16 34 23 23 50 108 138 160 164 25 13 68 23 111 26 39
2 76 9 82 14 14 11 129 -49 164 -85 51 -53 74 -90 60 -95 -8 -3 -30 -20 -51
-38 l-36 -33 -12 33 c-14 37 -93 116 -116 116 -7 0 -27 7 -42 15 -34 17 -72
19 -108 5 -43 -16 -29 -28 37 -33 75 -5 83 -7 125 -32 38 -23 78 -77 88 -120
4 -16 11 -35 16 -42 5 -7 5 -14 -1 -17 -12 -8 -17 0 -25 39 -8 36 -51 93 -62
82 -4 -4 0 -23 9 -43 10 -20 14 -34 10 -32 -4 2 -32 16 -61 31 -40 21 -61 27
-83 22 -31 -7 -30 -25 1 -25 30 0 69 -21 75 -41 4 -10 0 -30 -8 -45 -14 -27
-15 -28 -22 -5 -3 12 -12 20 -18 18 -20 -6 -18 -23 7 -50 27 -29 82 -37 104
-15 9 9 12 6 12 -15 0 -19 -13 -39 -45 -69 -50 -47 -57 -68 -21 -68 50 0 97
29 116 73 11 23 20 50 20 60 0 9 7 17 15 17 26 0 65 23 71 42 3 11 17 23 30
28 25 10 31 24 15 34 -5 4 -21 2 -35 -4 -47 -17 -27 -1 31 26 32 15 61 32 65
38 14 20 8 28 -13 23 -17 -4 -24 2 -39 37 -23 54 -112 146 -170 176 -104 53
-221 72 -206 34 4 -9 -2 -14 -17 -14 -74 -1 -158 -57 -251 -170 -26 -31 -29
-33 -41 -17 -7 9 -15 17 -19 17 -4 0 -56 28 -114 62 -59 33 -124 70 -144 82
-20 12 -48 31 -61 42 -14 12 -44 33 -68 48 -24 14 -57 38 -74 53 -109 101
-194 173 -203 173 -16 0 -15 -12 7 -75 19 -53 16 -70 -8 -41 -6 7 -39 28 -74
45 -74 38 -182 114 -342 240 -27 22 -56 40 -62 40 -30 2 30 -165 79 -219 17
-19 43 -48 57 -64 l26 -30 -25 17 c-14 9 -50 31 -80 48 -50 29 -85 52 -205
132 -76 51 -177 125 -199 146 -24 22 -46 28 -46 11z m2230 -784 c0 -7 -22 -23
-50 -35 -27 -12 -50 -27 -50 -32 0 -5 -4 -9 -10 -9 -22 0 -7 21 42 59 51 39
68 43 68 17z"/>
<path d="M2871 2503 c0 -65 -5 -133 -10 -150 -5 -18 -7 -33 -3 -33 3 0 1 -5
-6 -12 -14 -14 -16 -58 -2 -58 15 0 46 68 59 128 22 103 8 242 -24 242 -12 0
-14 -22 -14 -117z"/>
<path d="M2809 2453 c-137 -203 -241 -294 -479 -419 -25 -13 -56 -32 -70 -43
l-25 -19 24 -44 c36 -65 40 -67 67 -33 13 17 24 35 24 40 0 15 35 44 140 119
158 111 198 144 260 217 62 72 96 130 106 184 9 51 -12 50 -47 -2z"/>
<path d="M3029 2330 c-6 -17 -14 -29 -17 -26 -2 3 -31 -19 -64 -49 -61 -57
-159 -129 -218 -162 -19 -11 -37 -27 -38 -37 -3 -14 0 -15 15 -7 10 5 61 30
113 55 109 52 127 66 164 124 14 23 29 42 31 42 8 0 -39 -88 -74 -140 -17 -25
-31 -52 -31 -61 0 -26 -88 -55 -196 -65 -61 -6 -74 -10 -72 -23 3 -13 18 -16
96 -15 50 1 92 0 92 -2 0 -11 -127 -59 -197 -74 -55 -13 -62 -20 -39 -39 14
-11 39 -17 96 -20 42 -3 -66 -41 -135 -47 -103 -10 -110 -11 -108 -23 2 -6 -2
-11 -7 -11 -6 0 -10 8 -10 18 0 13 -2 14 -9 4 -4 -7 -12 -12 -17 -10 -10 3
-54 -24 -54 -33 0 -12 68 -39 99 -39 17 0 31 -4 31 -8 0 -10 -44 -24 -133 -43
-55 -12 -58 -14 -54 -38 2 -14 8 -34 12 -43 7 -17 5 -17 -30 -2 -31 13 -39 13
-46 2 -12 -18 -11 -25 7 -53 9 -14 12 -25 6 -25 -14 0 -42 46 -42 70 0 12 12
37 26 56 25 32 27 64 4 64 -6 0 -14 -8 -17 -17 -4 -10 -9 -20 -12 -23 -4 -3
-17 -22 -31 -43 -35 -53 -112 -101 -192 -121 -20 -5 -28 -3 -28 7 0 8 -17 22
-37 33 -115 58 -167 134 -176 254 -7 80 -9 85 -32 76 -13 -5 -15 -17 -12 -63
3 -32 10 -69 15 -83 6 -14 13 -37 16 -52 8 -37 101 -128 154 -152 42 -19 57
-39 25 -34 -11 2 -18 -3 -18 -12 0 -19 62 -21 123 -4 27 8 44 9 48 2 3 -5 17
-7 30 -4 29 8 30 -2 8 -67 -15 -46 -101 -144 -169 -194 -28 -21 -29 -23 -13
-36 10 -8 14 -17 8 -23 -9 -10 11 -79 28 -96 12 -12 50 -14 80 -4 16 5 22 3
22 -6 0 -17 47 -62 73 -71 19 -7 56 8 69 27 14 20 8 63 -10 79 -24 22 -32 21
-32 -2 0 -27 -31 -36 -47 -15 -20 27 -16 34 24 50 l37 16 27 -33 c15 -19 27
-38 26 -43 -5 -23 23 -14 43 14 19 27 21 35 10 58 -12 26 -11 26 8 8 12 -10
18 -24 15 -32 -9 -24 26 -16 43 11 22 33 11 73 -24 87 -37 14 -101 11 -129 -7
-53 -35 -178 -95 -189 -91 -20 7 -8 118 13 129 32 17 101 97 122 141 12 23 21
63 22 89 1 26 3 47 4 47 2 0 28 -11 59 -25 31 -14 63 -25 72 -25 22 0 30 31
11 42 -10 5 -17 15 -17 23 0 12 10 13 45 8 52 -7 67 11 41 49 -9 12 -16 25
-16 28 0 4 33 14 73 25 100 25 232 96 231 124 0 12 4 21 10 21 15 0 227 104
251 124 29 23 6 34 -58 29 l-52 -4 40 22 c84 45 143 90 188 142 26 31 47 58
47 61 0 13 -34 5 -76 -19 -25 -14 -47 -25 -50 -25 -6 0 65 101 77 110 4 3 12
23 18 45 23 84 5 178 -20 105z"/>
<path d="M750 2135 c0 -8 27 -36 60 -62 53 -41 58 -47 43 -58 -25 -18 -4 -39
75 -78 62 -30 63 -31 42 -47 -19 -14 -20 -18 -6 -29 8 -7 37 -19 63 -26 26 -7
80 -25 118 -40 39 -14 90 -32 115 -41 25 -8 53 -19 62 -24 10 -6 22 -10 28
-10 11 0 62 -34 88 -57 15 -14 38 -17 45 -5 3 4 8 22 12 39 8 38 9 38 -130 79
-88 26 -159 49 -240 78 -27 9 -40 20 -40 33 0 12 -19 28 -60 48 -33 17 -62 31
-65 33 -2 2 2 7 10 12 12 7 11 12 -4 29 -17 19 -17 19 21 11 96 -22 38 35 -67
66 -30 9 -64 21 -75 27 -17 10 -84 36 -92 37 -2 0 -3 -7 -3 -15z"/>
<path d="M1570 1673 c0 -10 -10 -43 -22 -73 -18 -47 -21 -76 -22 -195 l-1
-140 38 -76 c26 -53 56 -94 97 -133 32 -31 54 -56 49 -56 -19 0 -49 -41 -49
-69 0 -33 13 -46 54 -57 l29 -7 -6 42 c-5 39 -4 41 22 41 25 0 27 -4 29 -42 3
-56 11 -78 26 -78 19 0 8 -106 -15 -150 -17 -34 -18 -34 -19 -9 0 48 -12 89
-26 89 -7 0 -33 -37 -58 -82 l-44 -82 -6 35 c-3 19 -9 63 -14 98 -4 35 -12 66
-18 68 -7 2 -21 -15 -33 -39 -11 -24 -37 -72 -56 -108 l-36 -65 6 102 c4 63 2
104 -4 107 -6 4 -32 -25 -59 -63 -58 -83 -111 -145 -118 -138 -5 4 7 36 54
153 33 82 15 87 -65 17 -68 -60 -144 -115 -150 -109 -8 8 36 86 78 141 83 107
184 192 297 249 28 14 52 29 52 31 0 14 -54 85 -65 85 -7 0 -33 -28 -59 -62
-25 -35 -80 -90 -121 -122 -118 -93 -195 -195 -231 -309 -18 -57 -13 -107 10
-107 7 0 39 17 72 38 32 21 64 41 71 45 9 6 10 -9 6 -60 -4 -56 -2 -71 11 -82
14 -12 22 -9 60 23 25 20 55 51 68 68 l23 32 7 -44 c4 -24 14 -51 23 -59 13
-13 18 -12 46 14 17 17 43 49 59 73 31 47 33 46 45 -35 7 -47 16 -57 43 -48
16 5 72 87 72 106 0 5 5 9 10 9 6 0 10 -6 10 -13 0 -7 7 -23 16 -35 12 -18 19
-20 35 -12 36 20 71 111 73 190 1 19 8 40 16 47 13 10 13 12 -2 18 -10 4 -18
18 -18 30 0 13 -4 27 -10 30 -17 10 -11 44 9 55 29 15 41 12 41 -8 0 -11 9
-27 21 -38 20 -18 21 -18 35 1 30 41 6 99 -46 110 -16 4 -29 10 -29 13 6 38
-55 112 -91 112 -28 0 -48 -47 -40 -93 4 -21 3 -40 -2 -43 -4 -3 -8 0 -8 6 0
7 -21 35 -47 64 -113 125 -153 333 -97 509 18 59 13 107 -11 107 -8 0 -15 -8
-15 -17z m240 -613 c0 -11 -4 -20 -10 -20 -5 0 -10 9 -10 20 0 11 5 20 10 20
6 0 10 -9 10 -20z m24 -63 c5 -21 -8 -37 -31 -37 -7 0 -13 5 -13 11 0 5 5 7
10 4 16 -10 24 23 10 40 -11 13 -10 14 3 10 8 -4 18 -16 21 -28z"/>
<path d="M1923 1274 c-21 -14 -53 -45 -72 -70 -27 -36 -31 -47 -21 -59 11 -13
17 -8 43 31 16 25 47 56 68 69 45 29 54 41 35 48 -8 3 -31 -6 -53 -19z"/>
</g>
</svg>
